<svg width="50" height="50" viewBox="0 0 50 50" fill="none" xmlns="http://www.w3.org/2000/svg">
<g clip-path="url(#clip0_402_253)">
<path d="M25 50C38.8071 50 50 38.8071 50 25C50 11.1929 38.8071 0 25 0C11.1929 0 0 11.1929 0 25C0 38.8071 11.1929 50 25 50Z" fill="#F0F0F0"/>
<path d="M25 0C15.0885 0 6.5244 5.76807 2.48065 14.1305H47.5192C43.4756 5.76807 34.9114 0 25 0V0Z" fill="#338AF3"/>
<path d="M25 50C34.9114 50 43.4756 44.2319 47.5193 35.8695H2.48065C6.5244 44.2319 15.0885 50 25 50Z" fill="#338AF3"/>
<path d="M32.4722 25L29.4189 26.4362L31.0448 29.3932L27.7294 28.7589L27.3093 32.1081L25 29.6448L22.6906 32.1081L22.2706 28.7589L18.9552 29.3931L20.581 26.4361L17.5278 25L20.5811 23.5638L18.9552 20.6069L22.2705 21.2411L22.6907 17.8919L25 20.3552L27.3094 17.8919L27.7294 21.2411L31.0449 20.6069L29.419 23.5639L32.4722 25Z" fill="#FFDA44"/>
</g>
<defs>
<clipPath id="clip0_402_253">
<rect width="50" height="50" fill="white"/>
</clipPath>
</defs>
</svg>
