<svg width="50" height="50" viewBox="0 0 50 50" fill="none" xmlns="http://www.w3.org/2000/svg">
<g clip-path="url(#clip0_402_253)">
<path d="M50 25C50 38.807 38.807 50 25 50C11.193 50 0 38.807 0 25C0 25.0059 25 0.00283203 25 0C38.807 0 50 11.193 50 25Z" fill="#0052B4"/>
<path d="M25 0C24.9986 0 24.9972 9.76563e-05 24.9958 9.76563e-05L25 0Z" fill="#F0F0F0"/>
<path d="M24.9331 25H25C25 24.9773 25 24.9557 25 24.9331C24.9777 24.9555 24.9555 24.9777 24.9331 25Z" fill="#F0F0F0"/>
<path d="M25 13.0436C25 8.64465 25 5.76213 25 0.00012207H24.9958C11.1906 0.00236816 0 11.1943 0 25H13.0435V17.6551L20.3884 25H24.9332C24.9556 24.9778 24.9778 24.9555 25.0001 24.9331C25.0001 23.2489 25.0001 21.746 25.0001 20.3886L17.6551 13.0436H25Z" fill="#F0F0F0"/>
<path d="M12.6479 3.26086C8.73788 5.48733 5.4873 8.73791 3.26083 12.648V25H9.78261V9.78274V9.78264H25C25 7.72571 25 5.76614 25 3.26086H12.6479Z" fill="#D80027"/>
<path d="M25 21.9257L16.1179 13.0437H13.0435C13.0435 13.0436 13.0435 13.0437 13.0435 13.0437L24.9999 25H25C25 25 25 22.8804 25 21.9257Z" fill="#D80027"/>
<path d="M15.0776 29.3478L16.4497 32.2168L19.548 31.5007L18.1605 34.3622L20.6521 36.3381L17.5499 37.0373L17.5586 40.2174L15.0776 38.2278L12.5968 40.2174L12.6055 37.0373L9.50311 36.3381L11.9948 34.3622L10.6071 31.5007L13.7057 32.2168L15.0776 29.3478Z" fill="#F0F0F0"/>
<path d="M37.4301 34.7826L38.1161 36.2171L39.6653 35.859L38.9715 37.2897L40.2174 38.2777L38.6662 38.6273L38.6705 40.2174L37.4301 39.2225L36.1896 40.2174L36.1939 38.6273L34.6429 38.2777L35.8887 37.2897L35.1949 35.859L36.744 36.2171L37.4301 34.7826Z" fill="#F0F0F0"/>
<path d="M31.0481 19.5652L31.7341 20.9998L33.2833 20.6416L32.5895 22.0723L33.8353 23.0603L32.2843 23.4099L32.2885 25L31.0481 24.0051L29.8077 25L29.8119 23.4099L28.2608 23.0603L29.5066 22.0723L28.8129 20.6416L30.3621 20.9998L31.0481 19.5652Z" fill="#F0F0F0"/>
<path d="M37.4301 10.8695L38.1161 12.3041L39.6653 11.946L38.9716 13.3767L40.2173 14.3646L38.6662 14.7143L38.6705 16.3044L37.4301 15.3095L36.1896 16.3044L36.1939 14.7143L34.6429 14.3646L35.8886 13.3767L35.1949 11.946L36.744 12.3041L37.4301 10.8695Z" fill="#F0F0F0"/>
<path d="M43.0047 17.3913L43.6906 18.8259L45.2398 18.4677L44.5461 19.8984L45.7919 20.8864L44.2407 21.2361L44.245 22.8261L43.0047 21.8313L41.7643 22.8261L41.7685 21.2361L40.2174 20.8864L41.4632 19.8984L40.7694 18.4677L42.3186 18.8259L43.0047 17.3913Z" fill="#F0F0F0"/>
<path d="M39.0185 25L39.5581 26.6607H41.3044L39.8916 27.6872L40.4313 29.3479L39.0185 28.3215L37.6058 29.3479L38.1454 27.6872L36.7327 26.6607H38.4789L39.0185 25Z" fill="#F0F0F0"/>
</g>
<defs>
<clipPath id="clip0_402_253">
<rect width="50" height="50" fill="white"/>
</clipPath>
</defs>
</svg>
