<svg width="50" height="50" viewBox="0 0 50 50" fill="none" xmlns="http://www.w3.org/2000/svg">
<g clip-path="url(#clip0_504_140)">
<path d="M33.6956 1.55498C30.9873 0.550098 28.058 0 25 0C21.942 0 19.0127 0.550098 16.3044 1.55498L14.1305 25L16.3044 48.445C19.0127 49.45 21.942 50 25 50C28.058 50 30.9873 49.45 33.6956 48.445L35.8696 25L33.6956 1.55498Z" fill="#FFDA44"/>
<path d="M50 25C50 14.251 43.2156 5.08728 33.6956 1.55505V48.4452C43.2156 44.9127 50 35.7492 50 25V25Z" fill="#D80027"/>
<path d="M0 25C0 35.7492 6.78437 44.9127 16.3044 48.4451V1.55505C6.78437 5.08728 0 14.251 0 25V25Z" fill="black"/>
</g>
<defs>
<clipPath id="clip0_504_140">
<rect width="50" height="50" fill="white"/>
</clipPath>
</defs>
</svg>
