<svg width="50" height="50" viewBox="0 0 50 50" fill="none" xmlns="http://www.w3.org/2000/svg">
<g clip-path="url(#clip0_504_140)">
<path d="M25 50C38.8071 50 50 38.8071 50 25C50 11.1929 38.8071 0 25 0C11.1929 0 0 11.1929 0 25C0 38.8071 11.1929 50 25 50Z" fill="#F0F0F0"/>
<path d="M50 25C50 15.0885 44.2319 6.5244 35.8695 2.48065V47.5192C44.2319 43.4756 50 34.9115 50 25V25Z" fill="#D80027"/>
<path d="M0 25C0 34.9115 5.76807 43.4756 14.1305 47.5193V2.48065C5.76807 6.5244 0 15.0885 0 25Z" fill="#D80027"/>
<path d="M29.3478 28.2608L33.6956 26.0869L31.5218 25V22.8261L27.1739 25L29.3478 20.6521H27.1739L25 17.3913L22.8261 20.6521H20.6521L22.8261 25L18.4782 22.8261V25L16.3044 26.0869L20.6521 28.2608L19.5652 30.4348H23.9131V33.6956H26.0869V30.4348H30.4348L29.3478 28.2608Z" fill="#D80027"/>
</g>
<defs>
<clipPath id="clip0_504_140">
<rect width="50" height="50" fill="white"/>
</clipPath>
</defs>
</svg>
