<svg width="50" height="50" viewBox="0 0 50 50" fill="none" xmlns="http://www.w3.org/2000/svg">
<g clip-path="url(#clip0_504_140)">
<path d="M50 25C50 21.942 49.4499 19.0126 48.445 16.3044L25 15.2174L1.55498 16.3043C0.550098 19.0126 0 21.942 0 25C0 28.058 0.550098 30.9874 1.55498 33.6956L25 34.7826L48.445 33.6957C49.4499 30.9874 50 28.058 50 25Z" fill="#F0F0F0"/>
<path d="M25 50C35.7491 50 44.9127 43.2156 48.445 33.6956H1.55499C5.08732 43.2156 14.2509 50 25 50Z" fill="#0052B4"/>
<path d="M1.55499 16.3044H48.4451C44.9127 6.78437 35.7491 0 25 0C14.2509 0 5.08732 6.78437 1.55499 16.3044V16.3044Z" fill="#D80027"/>
<path d="M31.5217 17.3914H27.1739L27.8986 11.9565L30.797 9.78259L33.6956 11.9565V16.3044L31.5217 17.3914Z" fill="#338AF3"/>
<path d="M18.4782 17.3914H22.8261L22.1014 11.9565L19.2028 9.78259L16.3044 11.9565V16.3044L18.4782 17.3914Z" fill="#338AF3"/>
<path d="M27.8986 17.3914H22.1014V11.9565L25 9.78259L27.8986 11.9565V17.3914Z" fill="#0052B4"/>
<path d="M16.3044 16.3045V28.261C16.3044 31.1079 17.6796 33.6398 19.8007 35.227L21.3224 34.8462L23.2428 36.778C23.8106 36.895 24.3982 36.9567 25.0001 36.9567C25.5987 36.9567 26.1834 36.8958 26.7482 36.78L28.9403 34.9548L30.1993 35.2235C32.3195 33.6363 33.6957 31.1071 33.6957 28.261V16.3045H16.3044Z" fill="#F0F0F0"/>
<path d="M16.3044 16.3044H19.7826V19.7826H16.3044V16.3044Z" fill="#D80027"/>
<path d="M23.2608 16.3044H26.739V19.7826H23.2608V16.3044Z" fill="#D80027"/>
<path d="M30.2173 16.3044H33.6956V19.7826H30.2173V16.3044Z" fill="#D80027"/>
<path d="M19.7826 19.7826H23.2608V23.2608H19.7826V19.7826Z" fill="#D80027"/>
<path d="M26.7391 19.7826H30.2174V23.2608H26.7391V19.7826Z" fill="#D80027"/>
<path d="M16.3044 23.2598H19.7826V26.738H16.3044V23.2598Z" fill="#D80027"/>
<path d="M19.7826 26.7381H23.2608V30.2163H19.7826V26.7381Z" fill="#D80027"/>
<path d="M23.2608 23.2598H26.739V26.738H23.2608V23.2598Z" fill="#D80027"/>
<path d="M30.2173 23.2598H33.6956V26.738H30.2173V23.2598Z" fill="#D80027"/>
<path d="M26.7391 26.7381H30.2174V30.2163H26.7391V26.7381Z" fill="#D80027"/>
<path d="M23.2608 30.2163H26.739V33.6945H23.2608V30.2163Z" fill="#D80027"/>
<path d="M19.7826 30.2166H16.5288C16.8272 31.5096 17.414 32.6927 18.2185 33.6948H19.7826V30.2166Z" fill="#D80027"/>
<path d="M30.2173 33.6949H31.7814C32.5861 32.6928 33.1726 31.5095 33.4711 30.2167H30.2173V33.6949Z" fill="#D80027"/>
<path d="M19.7826 33.6949V35.2126C20.7942 35.9738 21.9764 36.5196 23.2608 36.7815V33.6949H19.7826Z" fill="#D80027"/>
<path d="M26.7391 33.6949V36.7815C28.0236 36.5198 29.2057 35.9738 30.2174 35.2126V33.6949H26.7391Z" fill="#D80027"/>
</g>
<defs>
<clipPath id="clip0_504_140">
<rect width="50" height="50" fill="white"/>
</clipPath>
</defs>
</svg>
