<svg width="50" height="50" viewBox="0 0 50 50" fill="none" xmlns="http://www.w3.org/2000/svg">
<g clip-path="url(#clip0_504_140)">
<path d="M1.55499 33.6956C5.08732 43.2155 14.2509 50 25 50C35.7491 50 44.9127 43.2155 48.445 33.6956L25 31.5218L1.55499 33.6956Z" fill="#FFDA44"/>
<path d="M25 0C14.2509 0 5.08732 6.78438 1.55499 16.3044L25 18.4782L48.445 16.3043C44.9127 6.78437 35.7491 0 25 0Z" fill="black"/>
<path d="M1.55498 16.3044C0.550098 19.0127 0 21.942 0 25C0 28.058 0.550098 30.9873 1.55498 33.6956H48.4451C49.45 30.9873 50 28.058 50 25C50 21.942 49.45 19.0127 48.445 16.3044H1.55498Z" fill="#D80027"/>
</g>
<defs>
<clipPath id="clip0_504_140">
<rect width="50" height="50" fill="white"/>
</clipPath>
</defs>
</svg>
