<svg width="50" height="50" viewBox="0 0 50 50" fill="none" xmlns="http://www.w3.org/2000/svg">
<g clip-path="url(#clip0_504_140)">
<path d="M25 50C38.8071 50 50 38.8071 50 25C50 11.1929 38.8071 0 25 0C11.1929 0 0 11.1929 0 25C0 38.8071 11.1929 50 25 50Z" fill="#D80027"/>
<path d="M39.7742 20.5166H28.4877L25 9.78259L21.5123 20.5166H10.2258L19.3567 27.1506L15.8689 37.8848L25 31.2508L34.131 37.8849L30.6432 27.1507L39.7742 20.5166ZM21.9123 26.3202L23.0917 22.6904H26.9082L28.0877 26.3202V26.3203L25 28.5635L21.9124 26.3203L21.9123 26.3202ZM26.2019 20.5166H23.7981L25 16.8174L26.2019 20.5166ZM29.9368 24.9767L29.1939 22.6905H33.0835L29.9368 24.9767ZM20.8059 22.6905L20.0631 24.9767L16.9163 22.6905H20.8059ZM20.004 32.1934L21.2059 28.4943L23.1508 29.9072L20.004 32.1934ZM26.8492 29.9073L28.794 28.4944L29.996 32.1935L26.8492 29.9073Z" fill="#FFDA44"/>
</g>
<defs>
<clipPath id="clip0_504_140">
<rect width="50" height="50" fill="white"/>
</clipPath>
</defs>
</svg>
