<svg width="50" height="50" viewBox="0 0 50 50" fill="none" xmlns="http://www.w3.org/2000/svg">
<g clip-path="url(#clip0_402_253)">
<path d="M25 50C38.8071 50 50 38.8071 50 25C50 11.1929 38.8071 0 25 0C11.1929 0 0 11.1929 0 25C0 38.8071 11.1929 50 25 50Z" fill="#F0F0F0"/>
<path d="M50 25C50 15.0885 44.2319 6.5244 35.8695 2.48065V47.5192C44.2319 43.4756 50 34.9115 50 25V25Z" fill="#D80027"/>
<path d="M0 25C0 34.9115 5.76807 43.4756 14.1305 47.5193V2.48065C5.76807 6.5244 0 15.0885 0 25Z" fill="#6DA544"/>
<path d="M18.4782 25C18.4782 28.6018 21.3981 31.5218 25 31.5218C28.6018 31.5218 31.5218 28.6018 31.5218 25V22.826H18.4782V25Z" fill="#6DA544"/>
<path d="M33.6956 20.6521H27.1738C27.1738 19.4516 26.2005 18.4782 24.9999 18.4782C23.7993 18.4782 22.826 19.4516 22.826 20.6521H16.3042C16.3042 21.8528 17.35 22.8261 18.5505 22.8261H18.4781C18.4781 24.0267 19.4514 25 20.6521 25C20.6521 26.2007 21.6253 27.1739 22.826 27.1739H27.1738C28.3745 27.1739 29.3478 26.2007 29.3478 25C30.5484 25 31.5217 24.0267 31.5217 22.8261H31.4492C32.6499 22.8261 33.6956 21.8528 33.6956 20.6521Z" fill="#FF9811"/>
</g>
<defs>
<clipPath id="clip0_402_253">
<rect width="50" height="50" fill="white"/>
</clipPath>
</defs>
</svg>
