<svg width="50" height="50" viewBox="0 0 50 50" fill="none" xmlns="http://www.w3.org/2000/svg">
<g clip-path="url(#clip0_402_253)">
<path d="M25 50C38.8071 50 50 38.8071 50 25C50 11.1929 38.8071 0 25 0C11.1929 0 0 11.1929 0 25C0 38.8071 11.1929 50 25 50Z" fill="#D80027"/>
<path d="M25 36.9565C31.6034 36.9565 36.9565 31.6034 36.9565 25C36.9565 18.3966 31.6034 13.0435 25 13.0435C18.3966 13.0435 13.0435 18.3966 13.0435 25C13.0435 31.6034 18.3966 36.9565 25 36.9565Z" fill="#F0F0F0"/>
<path d="M26.4729 20.4283L28.5241 23.255L31.8461 22.1779L29.7917 25.0021L31.8427 27.8286L28.5218 26.7474L26.4674 29.5716L26.4695 26.0793L23.1487 24.9981L26.4708 23.9209L26.4729 20.4283Z" fill="#D80027"/>
<path d="M27.7174 32.0653C23.8154 32.0653 20.6521 28.902 20.6521 25C20.6521 21.0981 23.8154 17.9348 27.7174 17.9348C28.934 17.9348 30.0788 18.2424 31.0782 18.784C29.5103 17.2507 27.3663 16.3043 25 16.3043C20.1976 16.3043 16.3044 20.1975 16.3044 24.9999C16.3044 29.8024 20.1976 33.6955 25 33.6955C27.3663 33.6955 29.5104 32.7491 31.0782 31.2158C30.0788 31.7576 28.934 32.0653 27.7174 32.0653Z" fill="#D80027"/>
</g>
<defs>
<clipPath id="clip0_402_253">
<rect width="50" height="50" fill="white"/>
</clipPath>
</defs>
</svg>
