<svg width="50" height="50" viewBox="0 0 50 50" fill="none" xmlns="http://www.w3.org/2000/svg">
<g clip-path="url(#clip0_402_253)">
<path d="M25 50C38.8071 50 50 38.8071 50 25C50 11.1929 38.8071 0 25 0C11.1929 0 0 11.1929 0 25C0 38.8071 11.1929 50 25 50Z" fill="#F0F0F0"/>
<path d="M50 25C50 38.807 38.807 50 25 50C11.193 50 0 38.807 0 25" fill="#496E2D"/>
<path d="M43.2631 17.3968C42.3691 14.8614 39.9533 13.0436 37.112 13.0436H31.5218C27.9199 13.0436 25 15.9635 25 19.5654C25 20.7421 25.3133 21.8731 25.8585 22.8262C23.7826 22.8092 21.8614 22.8406 20.6522 22.8262C20.6522 20.311 20.6522 17.1069 20.6522 16.4365L20.909 16.1796C22.0619 15.0267 21.6775 13.1052 21.6775 13.1052C21.6775 13.1052 19.7562 12.7209 18.6032 13.8739L17.2596 15.2175H15.7609C12.4591 15.2175 9.78263 17.8941 9.78263 21.1957H14.1305V26.087C14.1305 26.8025 14.2747 27.484 14.5354 28.1047L13.0435 29.3479H10.8695V27.1739H8.69562V31.5218H18.4782V35.8697H16.3043V38.0436H20.6522V33.6957L22.6448 31.3044H27.3551L29.3478 33.6957V35.8697H27.1738V38.0436H35.8694V26.0869C35.8694 24.2861 37.3294 22.8261 39.1303 22.8261C39.1766 22.8261 39.2225 22.8278 39.2684 22.8296C39.1783 22.4812 39.1303 22.1158 39.1303 21.7392C39.1305 19.4102 40.9618 17.509 43.2631 17.3968V17.3968ZM31.5218 35.8696V31.3043H31.7029L33.6956 33.6956V35.8696H31.5218Z" fill="#D80027"/>
</g>
<defs>
<clipPath id="clip0_402_253">
<rect width="50" height="50" fill="white"/>
</clipPath>
</defs>
</svg>
